<svg width="32" height="32" viewBox="0 0 32 32" fill="none" xmlns="http://www.w3.org/2000/svg">
<path d="M31 9.33333V22.6667C31 24.8768 30.122 26.9964 28.5592 28.5592C26.9964 30.122 24.8768 31 22.6667 31H9.33333C7.1232 31 5.00358 30.122 3.44078 28.5592C1.87797 26.9964 1 24.8768 1 22.6667V9.33333C1 7.1232 1.87797 5.00358 3.44078 3.44078C5.00358 1.87797 7.1232 1 9.33333 1H22.6667C24.8768 1 26.9964 1.87797 28.5592 3.44078C30.122 5.00358 31 7.1232 31 9.33333Z" stroke="#352254" stroke-width="1.875" stroke-linecap="round" stroke-linejoin="round"/>
<path d="M11.165 15.7102C15.39 15.7102 15.39 22.6668 11.165 22.6668H6V15.7102M11.165 15.7102H6M11.165 15.7102C15.39 15.7102 15.39 9.3335 11.165 9.3335H6V15.7102M17.6667 18.5002C17.6667 17.3951 18.1057 16.3353 18.8871 15.5539C19.6685 14.7725 20.7283 14.3335 21.8333 14.3335C22.9384 14.3335 23.9982 14.7725 24.7796 15.5539C25.561 16.3353 26 17.3951 26 18.5002H17.6667ZM17.6667 18.5002C17.6667 19.6052 18.1057 20.665 18.8871 21.4464C19.6685 22.2278 20.7283 22.6668 21.8333 22.6668C23.38 22.6668 24.3167 22.1302 24.855 21.6335M24.3333 10.1668H19.3333" stroke="#352254" stroke-width="1.875" stroke-linecap="round" stroke-linejoin="round"/>
</svg>
