<svg width="62" height="74" viewBox="0 0 62 74" fill="none" xmlns="http://www.w3.org/2000/svg">
<path d="M0 0L5.64274 66.5801L30.9624 74L56.3528 66.553L62 0H0ZM50.2774 15.2538L48.3991 37.4338L48.4047 37.5535L48.3968 37.829V37.8266L47.0623 53.3352L46.9153 54.713L31 59.3396L30.9877 59.3513L15.0999 54.6989L14.0241 41.8769H21.815L22.3678 48.3967L31.0022 50.8562L31 50.861V50.8598L39.6664 48.3654L40.5823 37.7482H22.4655L22.31 35.9534L21.9559 31.7486L21.7701 29.4908H41.2709L41.9802 21.2334H12.2788L12.1233 19.4397L11.7698 15.2337L11.5835 12.9759H50.4631L50.2774 15.2538Z" fill="#24174A"/>
</svg>
