<svg width="201" height="188" viewBox="0 0 201 188" fill="none" xmlns="http://www.w3.org/2000/svg">
<ellipse cx="82.2414" cy="7.23077" rx="7.23077" ry="7.75862" transform="rotate(90 82.2414 7.23077)" fill="#634495"/>
<ellipse cx="82.2414" cy="41.9383" rx="7.23077" ry="7.75862" transform="rotate(90 82.2414 41.9383)" fill="#634495"/>
<ellipse cx="82.2414" cy="76.6463" rx="7.23077" ry="7.75862" transform="rotate(90 82.2414 76.6463)" fill="#634495"/>
<ellipse cx="82.2414" cy="111.354" rx="7.23077" ry="7.75862" transform="rotate(90 82.2414 111.354)" fill="#634495"/>
<ellipse cx="82.2414" cy="146.061" rx="7.23077" ry="7.75862" transform="rotate(90 82.2414 146.061)" fill="#634495"/>
<ellipse cx="82.2414" cy="180.769" rx="7.23077" ry="7.75862" transform="rotate(90 82.2414 180.769)" fill="#634495"/>
<ellipse cx="45.0002" cy="7.23077" rx="7.23077" ry="7.75862" transform="rotate(90 45.0002 7.23077)" fill="#634495"/>
<ellipse cx="45.0002" cy="41.9383" rx="7.23077" ry="7.75862" transform="rotate(90 45.0002 41.9383)" fill="#634495"/>
<ellipse cx="45.0002" cy="76.6463" rx="7.23077" ry="7.75862" transform="rotate(90 45.0002 76.6463)" fill="#634495"/>
<ellipse cx="45.0002" cy="111.354" rx="7.23077" ry="7.75862" transform="rotate(90 45.0002 111.354)" fill="#634495"/>
<ellipse cx="45.0002" cy="146.061" rx="7.23077" ry="7.75862" transform="rotate(90 45.0002 146.061)" fill="#634495"/>
<ellipse cx="45.0002" cy="180.769" rx="7.23077" ry="7.75862" transform="rotate(90 45.0002 180.769)" fill="#634495"/>
<ellipse cx="7.75847" cy="7.23077" rx="7.23077" ry="7.75862" transform="rotate(90 7.75847 7.23077)" fill="#634495"/>
<ellipse cx="7.75847" cy="41.9383" rx="7.23077" ry="7.75862" transform="rotate(90 7.75847 41.9383)" fill="#634495"/>
<ellipse cx="7.75847" cy="76.6463" rx="7.23077" ry="7.75862" transform="rotate(90 7.75847 76.6463)" fill="#634495"/>
<ellipse cx="7.75847" cy="111.354" rx="7.23077" ry="7.75862" transform="rotate(90 7.75847 111.354)" fill="#634495"/>
<ellipse cx="7.75847" cy="146.061" rx="7.23077" ry="7.75862" transform="rotate(90 7.75847 146.061)" fill="#634495"/>
<ellipse cx="7.75847" cy="180.769" rx="7.23077" ry="7.75862" transform="rotate(90 7.75847 180.769)" fill="#634495"/>
<ellipse cx="193.241" cy="7.23077" rx="7.23077" ry="7.75862" transform="rotate(90 193.241 7.23077)" fill="#634495"/>
<ellipse cx="193.241" cy="41.9383" rx="7.23077" ry="7.75862" transform="rotate(90 193.241 41.9383)" fill="#634495"/>
<ellipse cx="193.241" cy="76.6463" rx="7.23077" ry="7.75862" transform="rotate(90 193.241 76.6463)" fill="#634495"/>
<ellipse cx="193.241" cy="111.354" rx="7.23077" ry="7.75862" transform="rotate(90 193.241 111.354)" fill="#634495"/>
<ellipse cx="193.241" cy="146.061" rx="7.23077" ry="7.75862" transform="rotate(90 193.241 146.061)" fill="#634495"/>
<ellipse cx="193.241" cy="180.769" rx="7.23077" ry="7.75862" transform="rotate(90 193.241 180.769)" fill="#634495"/>
<ellipse cx="156" cy="7.23077" rx="7.23077" ry="7.75862" transform="rotate(90 156 7.23077)" fill="#634495"/>
<ellipse cx="156" cy="41.9383" rx="7.23077" ry="7.75862" transform="rotate(90 156 41.9383)" fill="#634495"/>
<ellipse cx="156" cy="76.6463" rx="7.23077" ry="7.75862" transform="rotate(90 156 76.6463)" fill="#634495"/>
<ellipse cx="156" cy="111.354" rx="7.23077" ry="7.75862" transform="rotate(90 156 111.354)" fill="#634495"/>
<ellipse cx="156" cy="146.061" rx="7.23077" ry="7.75862" transform="rotate(90 156 146.061)" fill="#634495"/>
<ellipse cx="156" cy="180.769" rx="7.23077" ry="7.75862" transform="rotate(90 156 180.769)" fill="#634495"/>
<ellipse cx="118.759" cy="7.23077" rx="7.23077" ry="7.75862" transform="rotate(90 118.759 7.23077)" fill="#634495"/>
<ellipse cx="118.759" cy="41.9383" rx="7.23077" ry="7.75862" transform="rotate(90 118.759 41.9383)" fill="#634495"/>
<ellipse cx="118.759" cy="76.6463" rx="7.23077" ry="7.75862" transform="rotate(90 118.759 76.6463)" fill="#634495"/>
<ellipse cx="118.759" cy="111.354" rx="7.23077" ry="7.75862" transform="rotate(90 118.759 111.354)" fill="#634495"/>
<ellipse cx="118.759" cy="146.061" rx="7.23077" ry="7.75862" transform="rotate(90 118.759 146.061)" fill="#634495"/>
<ellipse cx="118.759" cy="180.769" rx="7.23077" ry="7.75862" transform="rotate(90 118.759 180.769)" fill="#634495"/>
</svg>
