<svg width="273" height="58" viewBox="0 0 273 58" fill="none" xmlns="http://www.w3.org/2000/svg">
<circle cx="148" cy="5" r="5" fill="#5EB9FB"/>
<circle cx="172" cy="5" r="5" fill="#5EB9FB"/>
<circle cx="196" cy="5" r="5" fill="#5EB9FB"/>
<circle cx="220" cy="5" r="5" fill="#5EB9FB"/>
<circle cx="244" cy="5" r="5" fill="#5EB9FB"/>
<circle cx="268" cy="5" r="5" fill="#5EB9FB"/>
<circle cx="148" cy="29" r="5" fill="#5EB9FB"/>
<circle cx="172" cy="29" r="5" fill="#5EB9FB"/>
<circle cx="196" cy="29" r="5" fill="#5EB9FB"/>
<circle cx="220" cy="29" r="5" fill="#5EB9FB"/>
<circle cx="244" cy="29" r="5" fill="#5EB9FB"/>
<circle cx="268" cy="29" r="5" fill="#5EB9FB"/>
<circle cx="148" cy="53" r="5" fill="#5EB9FB"/>
<circle cx="172" cy="53" r="5" fill="#5EB9FB"/>
<circle cx="196" cy="53" r="5" fill="#5EB9FB"/>
<circle cx="220" cy="53" r="5" fill="#5EB9FB"/>
<circle cx="244" cy="53" r="5" fill="#5EB9FB"/>
<circle cx="268" cy="53" r="5" fill="#5EB9FB"/>
<circle cx="5" cy="5" r="5" fill="#5EB9FB"/>
<circle cx="29" cy="5" r="5" fill="#5EB9FB"/>
<circle cx="53" cy="5" r="5" fill="#5EB9FB"/>
<circle cx="77" cy="5" r="5" fill="#5EB9FB"/>
<circle cx="101" cy="5" r="5" fill="#5EB9FB"/>
<circle cx="125" cy="5" r="5" fill="#5EB9FB"/>
<circle cx="5" cy="29" r="5" fill="#5EB9FB"/>
<circle cx="29" cy="29" r="5" fill="#5EB9FB"/>
<circle cx="53" cy="29" r="5" fill="#5EB9FB"/>
<circle cx="77" cy="29" r="5" fill="#5EB9FB"/>
<circle cx="101" cy="29" r="5" fill="#5EB9FB"/>
<circle cx="125" cy="29" r="5" fill="#5EB9FB"/>
<circle cx="5" cy="53" r="5" fill="#5EB9FB"/>
<circle cx="29" cy="53" r="5" fill="#5EB9FB"/>
<circle cx="53" cy="53" r="5" fill="#5EB9FB"/>
<circle cx="77" cy="53" r="5" fill="#5EB9FB"/>
<circle cx="101" cy="53" r="5" fill="#5EB9FB"/>
<circle cx="125" cy="53" r="5" fill="#5EB9FB"/>
</svg>
