<svg width="64" height="89" viewBox="0 0 64 89" fill="none" xmlns="http://www.w3.org/2000/svg">
<path d="M32 0V59.84M32 59.84V73.92C32 76.7048 31.0909 79.427 29.3878 81.7424C27.6846 84.0579 25.2639 85.8625 22.4316 86.9282C19.5993 87.9939 16.4828 88.2727 13.4761 87.7295C10.4694 87.1862 7.70756 85.8452 5.53985 83.8761C3.37214 81.9069 1.89591 79.3981 1.29784 76.6669C0.699764 73.9356 1.00672 71.1046 2.17987 68.5318C3.35303 65.959 5.33971 63.76 7.88867 62.2129C10.4376 60.6658 13.4344 59.84 16.5 59.84M32 59.84H16.5M16.5 59.84C12.3892 59.84 8.44666 58.3566 5.53985 55.7161C2.63304 53.0755 1.00001 49.4942 1.00001 45.76C1.00001 42.0257 2.63304 38.4444 5.53985 35.8039C8.44666 33.1634 12.3892 31.68 16.5 31.68M16.5 31.68H32M16.5 31.68H47.5M16.5 31.68C12.3892 31.68 8.44666 30.1966 5.53985 27.5561C2.63304 24.9156 1.00001 21.3342 1.00001 17.6C1.00001 13.8658 2.63304 10.2844 5.53985 7.64394C8.44666 5.00342 12.3892 3.52 16.5 3.52H47.5C51.6109 3.52 55.5533 5.00342 58.4602 7.64394C61.367 10.2844 63 13.8658 63 17.6C63 21.3342 61.367 24.9156 58.4602 27.5561C55.5533 30.1966 51.6109 31.68 47.5 31.68M47.5 31.68C51.6109 31.68 55.5533 33.1634 58.4602 35.8039C61.367 38.4444 63 42.0257 63 45.76C63 49.4942 61.367 53.0755 58.4602 55.7161C55.5533 58.3566 51.6109 59.84 47.5 59.84C43.3891 59.84 39.4467 58.3566 36.5399 55.7161C33.633 53.0755 32 49.4942 32 45.76C32 42.0257 33.633 38.4444 36.5399 35.8039C39.4467 33.1634 43.3891 31.68 47.5 31.68Z" stroke="#30205E" stroke-width="2"/>
</svg>
