<svg width="62" height="62" viewBox="0 0 62 62" fill="none" xmlns="http://www.w3.org/2000/svg">
<path d="M10.3333 0C7.59276 0 4.96444 1.08869 3.02656 3.02656C1.08869 4.96444 0 7.59276 0 10.3333V51.6667C0 54.4072 1.08869 57.0356 3.02656 58.9734C4.96444 60.9113 7.59276 62 10.3333 62H51.6667C54.4072 62 57.0356 60.9113 58.9734 58.9734C60.9113 57.0356 62 54.4072 62 51.6667V10.3333C62 7.59276 60.9113 4.96444 58.9734 3.02656C57.0356 1.08869 54.4072 0 51.6667 0H10.3333ZM35.5949 44.9672C38.0749 46.965 40.548 47.9467 43.0211 47.9226C44.5367 47.9226 45.7009 47.647 46.5069 47.089C46.8832 46.8447 47.1894 46.5066 47.3954 46.108C47.6014 45.7094 47.6999 45.264 47.6814 44.8157C47.6864 44.3267 47.5842 43.8426 47.3818 43.3975C47.1795 42.9523 46.882 42.557 46.5103 42.2392C45.7009 41.5331 44.1716 40.827 41.9223 40.1174C39.2219 39.3356 37.1346 38.3263 35.6707 37.0863C34.2309 35.8463 33.5007 34.1172 33.4731 31.8956C33.4731 29.7979 34.3824 28.0447 36.2011 26.629C37.9716 25.2168 40.2311 24.5072 42.9867 24.5072C46.8238 24.5072 49.9066 25.4407 52.2281 27.311L49.5759 31.4409C48.621 30.6981 47.5254 30.1568 46.3553 29.8496C45.3038 29.4979 44.2054 29.3063 43.0969 29.2812C41.788 29.2812 40.7374 29.5223 39.9521 30.0011C39.1702 30.4833 38.781 31.1137 38.781 31.8956C38.781 32.7567 39.2598 33.4869 40.2173 34.0931C41.1818 34.6752 42.8213 35.3193 45.1429 36.0254C47.9467 36.859 49.9444 37.9716 51.1293 39.3597C52.3177 40.7478 52.9101 42.5182 52.9101 44.6641C52.9101 46.8617 52.0662 48.7561 50.3716 50.3474C48.7044 51.9147 46.2796 52.7344 43.0969 52.8102C38.9291 52.8102 35.4433 51.5599 32.6396 49.0592L35.5949 44.9672ZM16.5471 47.1648C17.3566 47.6711 18.3279 47.9226 19.4646 47.9226C20.6529 47.9226 21.6346 47.5816 22.4199 46.8996C23.2018 46.1934 23.5944 44.9672 23.5944 43.2243V24.9619H28.7094V44.2094C28.6337 47.1889 27.776 49.3382 26.133 50.6506C25.2365 51.4128 24.1914 51.9805 23.064 52.3177C22.0197 52.6358 20.9351 52.8017 19.8434 52.8102C17.949 52.8102 16.2681 52.483 14.8042 51.8251C13.237 51.119 11.9247 49.8687 10.8638 48.0741L14.4253 45.1567C15.0798 46.0419 15.7893 46.7101 16.5471 47.1648Z" fill="#24174A"/>
</svg>
