<svg width="30" height="30" viewBox="0 0 30 30" fill="none" xmlns="http://www.w3.org/2000/svg">
<path d="M14.5714 10.3714C16.1434 8.76514 18.1903 7.71429 20.5714 7.71429C23.072 7.71429 25.4702 8.70765 27.2384 10.4759C29.0066 12.2441 30 14.6422 30 17.1429V30H26.5714V17.1429C26.5714 15.5516 25.9393 14.0254 24.8141 12.9002C23.6889 11.775 22.1627 11.1429 20.5714 11.1429C18.9801 11.1429 17.454 11.775 16.3288 12.9002C15.2036 14.0254 14.5714 15.5516 14.5714 17.1429V30H11.1429V8.57143H14.5714V10.3714ZM2.57143 5.14286C1.88944 5.14286 1.23539 4.87194 0.753154 4.3897C0.270918 3.90747 0 3.25341 0 2.57143C0 1.88944 0.270918 1.23539 0.753154 0.753154C1.23539 0.270918 1.88944 0 2.57143 0C3.25341 0 3.90747 0.270918 4.3897 0.753154C4.87194 1.23539 5.14286 1.88944 5.14286 2.57143C5.14286 3.25341 4.87194 3.90747 4.3897 4.3897C3.90747 4.87194 3.25341 5.14286 2.57143 5.14286ZM0.857143 8.57143H4.28571V30H0.857143V8.57143Z" fill="#352254"/>
</svg>
