<svg width="62" height="62" viewBox="0 0 62 62" fill="none" xmlns="http://www.w3.org/2000/svg">
<path fill-rule="evenodd" clip-rule="evenodd" d="M24.2322 20.0249C22.4204 19.5689 20.6061 19.7153 18.6915 20.0141C18.6915 23.3691 18.6846 26.634 18.7097 29.8993C18.7107 30.0664 18.9612 30.3573 19.1236 30.3795C21.2114 30.662 23.2879 30.6847 25.2404 29.7312C27.2603 28.7451 28.2892 26.6833 28.0225 24.2625C27.7804 22.0582 26.4779 20.5904 24.2322 20.0249ZM62 31.0426V1.12657C62 0.0931828 62.0113 0 61.01 0H1.21983C0.246032 0 0 0.0936757 0 1.07776V60.9853C0 61.9803 0.124 61.9818 1.08697 61.9818C21.0426 61.9823 41.0578 61.9773 61.0134 62C61.7874 62.001 61.9951 61.7944 61.9931 61.0342C61.9665 51.037 62 41.0388 62 31.0426ZM27.2367 33.9219C24.5023 34.8991 21.6508 34.9539 18.6984 34.7246V45.8518H13.2857V45.1606C13.2857 35.8448 13.2429 26.5299 13.2168 17.2146C13.2139 16.4411 13.3364 16.0674 14.2064 15.9786C18.3062 15.5585 22.383 15.0862 26.4597 16.0442C30.842 17.0731 33.3688 19.9761 33.5607 23.9869C33.7984 28.9537 31.62 32.3556 27.2367 33.9219ZM49.04 40.21C48.8314 43.0553 47.2302 44.9234 44.6041 45.8266C41.0898 47.0356 37.5946 46.755 34.16 45.3874C33.5976 45.163 33.4889 44.879 33.6744 44.3047C34.0124 43.2565 34.2599 42.1787 34.5207 41.2055C35.9728 41.6324 37.3535 42.1654 38.784 42.4173C39.7942 42.5953 40.886 42.4908 41.913 42.3296C42.8336 42.1846 43.496 41.5585 43.647 40.5685C43.8005 39.5622 43.4979 38.6905 42.6112 38.1551C41.9066 37.7301 41.1301 37.4259 40.3856 37.0694C39.1884 36.496 37.9125 36.0464 36.8083 35.329C32.4629 32.5055 33.8776 27.2517 36.7773 25.2732C38.3288 24.2152 40.0456 23.7458 41.8835 23.6812C44.0451 23.6053 46.1265 23.979 48.171 24.9744L47.091 28.8146C46.2348 28.5109 45.4376 28.1165 44.5962 27.9597C43.5978 27.7734 42.5507 27.6693 41.543 27.7517C40.1917 27.8626 39.4005 28.7969 39.4005 29.9555C39.4005 30.6418 39.6603 31.2226 40.2316 31.5554C41.0514 32.0331 41.9213 32.4271 42.7834 32.8269C43.7164 33.2593 44.7015 33.5916 45.5995 34.0851C47.9959 35.4015 49.2433 37.4377 49.04 40.21Z" fill="#190F35"/>
</svg>
