<svg width="75" height="62" viewBox="0 0 75 62" fill="none" xmlns="http://www.w3.org/2000/svg">
<path d="M35.3719 46.8728C35.3016 47.0123 35.3367 46.9503 35.3719 46.8728V46.8728ZM64.5671 35.6362C62.2101 35.6354 59.8846 36.232 57.7702 37.3798C57.0788 35.8429 56.3639 34.4996 56.2467 33.4922C56.1061 32.3169 55.9537 31.6195 56.1178 30.2246C56.2819 28.8297 57.0202 26.8536 57.0084 26.7115C56.9967 26.5695 56.8444 25.8591 55.3326 25.8462C53.8209 25.8333 52.5201 26.1691 52.3689 26.6082C52.1019 27.4107 51.8942 28.2357 51.7478 29.0751C51.4783 30.5862 48.7255 35.9849 47.1669 38.8005C46.6513 37.7027 46.2177 36.734 46.1239 35.9591C45.9833 34.7838 45.831 34.0863 45.995 32.6915C46.1591 31.2966 46.8974 29.3205 46.8857 29.1784C46.874 29.0363 46.7216 28.326 45.211 28.3131C43.7005 28.3001 42.3985 28.636 42.2462 29.0751C42.0938 29.5142 41.9298 30.5475 41.6251 31.542C41.3204 32.5365 37.6535 41.5257 36.6938 43.8635C36.2016 45.0517 35.7797 46.0075 35.475 46.6532C35.4281 46.7566 35.393 46.8211 35.3695 46.8728C35.4047 46.8082 35.4281 46.7436 35.4281 46.7695C35.1703 47.3248 35.018 47.6348 35.018 47.6348V47.6477C34.8187 48.061 34.5961 48.4356 34.4906 48.4356C34.4203 48.4356 34.2679 47.3507 34.5258 45.8654C35.0766 42.7398 36.3773 37.8835 36.3656 37.7156C36.3539 37.6252 36.6117 36.7857 35.5102 36.3337C34.4437 35.9074 34.057 36.6178 33.9633 36.6178C33.8695 36.6178 33.7992 36.8761 33.7992 36.8761C33.7992 36.8761 34.9828 31.3999 31.5269 31.3999C29.3706 31.3999 26.3706 34.0088 24.8964 36.3724C23.9706 36.9278 21.9666 38.1289 19.8572 39.4076C19.0486 39.8984 18.2166 40.4021 17.4314 40.88C17.3728 40.8154 17.326 40.7508 17.2674 40.6862C13.0732 35.7525 5.32933 32.2652 5.65746 25.6395C5.77465 23.2243 6.53638 16.8827 20.5486 9.18504C32.0332 2.88222 41.2149 4.61291 42.7958 8.46176C45.0692 13.9509 37.8867 24.1672 25.9604 25.6395C21.4147 26.1949 19.0252 24.2576 18.4275 23.5343C17.8064 22.7723 17.7127 22.7335 17.4783 22.8756C17.0916 23.1081 17.3377 23.7797 17.4783 24.1801C17.8299 25.2004 19.2947 27.0086 21.7897 27.9127C23.9811 28.7005 29.3109 29.1397 35.7551 26.3886C42.995 23.3147 48.6306 14.7517 46.9783 7.5835C45.2954 0.299094 34.3359 -2.09029 23.9729 1.96521C17.7982 4.38043 11.1208 8.17762 6.31723 13.1243C0.611308 19.0138 -0.301593 24.1413 0.0734114 26.2853C1.40819 33.8926 10.9216 38.8522 14.7291 42.5202C14.5415 42.6365 14.3658 42.7398 14.2017 42.8431C12.2927 43.8893 5.03988 48.074 3.22462 52.4911C1.17381 57.5023 3.56447 61.0929 5.13363 61.5837C10.0309 63.0819 15.0455 60.3825 17.7396 55.9525C20.4338 51.5224 20.1068 45.7362 18.8646 43.1014C18.8529 43.0627 18.8295 43.0369 18.8178 42.9981C19.31 42.6752 19.8139 42.3523 20.3178 42.0294C21.2893 41.3966 22.2385 40.8154 23.0706 40.3117C22.6018 41.7066 22.2619 43.3856 22.0862 45.8137C21.8752 48.6552 22.9416 52.3361 24.3245 53.7827C24.9339 54.4155 25.671 54.4284 26.128 54.4284C27.7452 54.4284 28.4718 52.9561 29.2792 51.1995C30.2753 49.0555 31.1542 46.5628 31.1542 46.5628C31.1542 46.5628 30.0527 53.3048 33.0644 53.3048C34.1648 53.3048 35.2664 51.742 35.7598 50.9412V50.9541C35.7598 50.9541 35.7832 50.9025 35.8418 50.7991C35.959 50.6054 36.0176 50.4892 36.0176 50.4892V50.4504C36.4629 49.6109 37.4356 47.6865 38.8993 44.5092C40.7977 40.4021 42.613 35.2746 42.613 35.2746C42.7884 36.4017 43.0311 37.5149 43.3395 38.6068C43.6677 39.8338 44.3591 41.177 44.9099 42.4815C44.4646 43.1531 44.195 43.5406 44.195 43.5406C44.1959 43.5505 44.2001 43.5597 44.2067 43.5664C43.8552 44.083 43.4567 44.6384 43.0466 45.1809C41.5477 47.144 39.7653 49.3913 39.5309 50.0371C39.2496 50.7991 39.32 51.3674 39.859 51.8066C40.2575 52.1424 40.9606 52.194 41.6977 52.1295C43.0454 52.0261 43.9946 51.6645 44.4517 51.432C45.2942 51.099 46.0906 50.6382 46.8177 50.063C48.2826 48.8747 49.1732 47.1699 49.0912 44.9225C49.0443 43.6826 48.681 42.4427 48.2357 41.2803C48.3646 41.0737 48.5052 40.8541 48.6341 40.6346C50.9533 36.9019 52.7463 32.8051 52.7463 32.8051C52.9217 33.9323 53.1644 35.0454 53.4729 36.1373C53.7541 37.1835 54.3037 38.333 54.8076 39.4567C52.6291 41.4069 51.2814 43.6671 50.8127 45.1524C49.9455 47.9035 50.6252 49.1434 51.9025 49.4275C52.4768 49.5567 53.2971 49.2596 53.9065 48.9755C54.8115 48.6432 55.6648 48.1597 56.4366 47.5418C57.9014 46.3536 59.3182 44.6875 59.2245 42.4272C59.1893 41.4069 58.9315 40.3866 58.5917 39.405C60.4315 38.5526 62.821 38.0876 65.8679 38.4751C72.393 39.3146 73.6704 43.8092 73.4243 45.682C73.1782 47.5547 71.8071 48.6009 71.35 48.9109C70.893 49.2209 70.7524 49.3371 70.7875 49.5696C70.8461 49.9054 71.0571 49.8925 71.4438 49.815C71.9828 49.7117 74.8645 48.2909 74.9934 44.8166C75.1809 40.4253 71.35 35.5949 64.5636 35.6336L64.5671 35.6362ZM14.272 54.3251C12.1169 56.9211 9.09344 57.9027 7.79381 57.0761C6.39927 56.1824 6.95005 52.3619 9.60907 49.5954C11.2263 47.9164 13.3111 46.3665 14.6939 45.4108C15.0103 45.2041 15.4673 44.8941 16.0298 44.5196C16.1236 44.455 16.1705 44.4292 16.1705 44.4292C16.2759 44.3517 16.3931 44.2871 16.5103 44.2096C17.4818 48.1359 16.5455 51.5973 14.272 54.3225V54.3251ZM30.0175 42.5202C29.2675 44.548 27.6866 49.7142 26.7257 49.443C25.9054 49.2105 25.4014 45.2713 26.5616 41.3966C27.1476 39.4463 28.3898 37.1215 29.128 36.2174C30.3105 34.758 31.6113 34.293 31.916 34.8742C32.3261 35.6362 30.4863 41.2545 30.0175 42.5202ZM43.0255 49.3655C42.7091 49.5463 42.4161 49.6626 42.2755 49.5722C42.17 49.5076 42.4044 49.2622 42.4044 49.2622C42.4044 49.2622 44.0333 47.3378 44.6778 46.4595C45.0528 45.9429 45.4864 45.3358 45.954 44.6642C45.954 44.7288 45.9657 44.7934 45.9657 44.8709C45.9505 47.1828 43.936 48.7456 43.022 49.3655H43.0255ZM53.0545 46.847C52.8201 46.6661 52.8553 46.0591 53.6404 44.1734C53.9451 43.4372 54.6471 42.1973 55.867 41.0091C56.0051 41.4589 56.0802 41.9293 56.0897 42.404C56.078 45.31 54.1912 46.3949 53.0557 46.847H53.0545Z" fill="#24174A"/>
</svg>
